<?xml version="1.0" standalone="no"?>
<!DOCTYPE svg PUBLIC "-//W3C//DTD SVG 20010904//EN"
 "http://www.w3.org/TR/2001/REC-SVG-20010904/DTD/svg10.dtd">
<svg version="1.0" xmlns="http://www.w3.org/2000/svg"
 width="48.000000pt" height="48.000000pt" viewBox="0 0 48.000000 48.000000"
 preserveAspectRatio="xMidYMid meet">

<g transform="translate(0.000000,48.000000) scale(0.100000,-0.100000)"
fill="#000000" stroke="none">
<path d="M20 406 c0 -8 12 -16 27 -18 21 -2 29 -10 35 -35 5 -20 15 -33 24
-33 10 0 14 6 10 15 -5 13 16 15 153 15 l158 0 -15 -77 c-8 -43 -19 -84 -25
-90 -15 -20 -221 -18 -237 2 -13 16 -40 20 -40 7 0 -5 10 -18 23 -30 21 -20
34 -22 138 -22 144 0 149 4 173 135 9 50 16 93 16 98 0 4 -78 7 -173 7 -160 0
-174 1 -190 20 -20 24 -77 28 -77 6z"/>
<path d="M20 285 c0 -12 16 -15 80 -15 64 0 80 3 80 15 0 12 -16 15 -80 15
-64 0 -80 -3 -80 -15z"/>
<path d="M40 235 c0 -12 16 -15 80 -15 64 0 80 3 80 15 0 12 -16 15 -80 15
-64 0 -80 -3 -80 -15z"/>
<path d="M174 106 c-10 -26 4 -48 28 -44 33 4 33 52 0 56 -13 2 -25 -3 -28
-12z"/>
<path d="M314 106 c-10 -26 4 -48 28 -44 33 4 33 52 0 56 -13 2 -25 -3 -28
-12z"/>
</g>
</svg>
