<svg width="400" height="200" xmlns="http://www.w3.org/2000/svg">
 <g>
  <title>Layer 1</title>
  <text fill="#000000" stroke-width="0" x="119.45804" y="313.63846" id="svg_2" font-size="24" font-family="'Orbitron'" text-anchor="start" xml:space="preserve" stroke="#fff" transform="matrix(1.07678 0 0 4.73805 -44.2046 -1333)" font-weight="bold">LosVideogames</text>
  <path stroke="#fff" id="svg_1" d="m212.20001,42.84419c-2.12235,-0.70063 -4.67858,-0.09905 -5.71304,1.35028c-1.03018,1.44933 -0.14106,3.19144 1.98129,3.89353c6.65773,2.20823 11.25295,6.85337 11.24868,12.23701c-0.02137,7.50739 -8.93397,13.58147 -19.94754,13.59458c-11.01571,-0.01457 -19.92831,-6.08865 -19.94968,-13.59458c-0.00427,-5.38656 4.59309,-10.03607 11.25723,-12.23992c2.12663,-0.70209 3.00934,-2.4442 1.98129,-3.89353c-1.03018,-1.44642 -3.58214,-2.05237 -5.70876,-1.35028c-9.51532,3.139 -16.07687,9.79281 -16.08114,17.48373c0.00427,10.7265 12.75762,19.41957 28.50107,19.42249c15.74131,-0.00291 28.49679,-8.69598 28.49893,-19.42249c-0.00427,-7.68801 -6.55728,-14.33745 -16.06832,-17.48082zm-12.43061,14.32434c2.35959,0 4.27249,-1.30221 4.27249,-2.91323l0,-13.59603c0,-1.60956 -1.9129,-2.91177 -4.27249,-2.91177c-2.36387,0 -4.27463,1.30367 -4.27463,2.91177l0,13.59458c0,1.61101 1.91076,2.91468 4.27463,2.91468z" fill="#000"/>
 </g>

</svg>